<?xml version="1.0" encoding="utf-8"?>
<!-- Generator: Adobe Illustrator 17.0.0, SVG Export Plug-In . SVG Version: 6.00 Build 0)  -->
<!DOCTYPE svg PUBLIC "-//W3C//DTD SVG 1.1//EN" "http://www.w3.org/Graphics/SVG/1.1/DTD/svg11.dtd">
<svg version="1.1" id="Layer_1" xmlns="http://www.w3.org/2000/svg" xmlns:xlink="http://www.w3.org/1999/xlink" x="0px" y="0px"
	 width="266.234px" height="237px" viewBox="0 -65.859 266.234 237" enable-background="new 0 -65.859 266.234 237"
	 xml:space="preserve">
<g>
	<g>
		<g>
			<g>
				<circle fill="#E5E5E4" cx="125.084" cy="7.055" r="57.017"/>
			</g>
			<g>
				<polygon fill="#49B0B9" points="108.013,-3.687 119.69,3.054 119.69,-34.397 108.013,-41.733 				"/>
			</g>
			<g>
				<polygon fill="#147287" points="161.464,16.39 125.084,37.067 125.084,53.441 148.917,39.261 148.917,39.309 159.95,32.909 
					159.95,32.83 166.337,23.491 				"/>
			</g>
			<g>
				<path fill="#49B0B9" d="M84.805,5.13l7.383,10.169l17.509,10.079v36.59c3.225,0.902,6.565,1.526,9.994,1.847V31.131v-3.377
					V10.643L92.188-5.114L84.805,5.13z"/>
			</g>
			<g>
				<path fill="#147287" d="M125.084,67.04c-33.076,0-59.985-26.909-59.985-59.986c0-33.076,26.909-59.986,59.985-59.986
					c33.076,0,59.986,26.909,59.986,59.986C185.069,40.131,158.16,67.04,125.084,67.04z M125.084-46.993
					c-29.802,0-54.047,24.246-54.047,54.047c0,29.802,24.246,54.048,54.047,54.048c29.802,0,54.048-24.246,54.048-54.048
					C179.131-22.747,154.886-46.993,125.084-46.993z"/>
			</g>
			<path fill="#147287" d="M125.084,64c0.946,0.047-0.958,0.071,0,0.071c3,0,5.946-0.233,8.821-0.68V52.794l-8.821,4.884V64z"/>
			<g opacity="0.1">
				<path fill="#404041" d="M184.956,10.803l-43.487-44.245h-16.385v28.329v4.632v33.738v30.815c0,0,26.496,2.14,43.552-16.562
					C184.2,30.444,184.956,10.803,184.956,10.803z"/>
			</g>
			<g>
				<polygon fill="#49B0B9" points="141.469,-33.442 125.084,-33.442 125.084,-22.707 141.469,-23.213 				"/>
			</g>
			<g>
				<polygon fill="#DB3134" points="191.719,-22.162 125.084,-17.339 125.084,31.512 133.905,26.515 133.905,-0.482 191.719,4.402 
					201.136,-7.52 				"/>
			</g>
		</g>
	</g>
	<g>
		<g>
			<path fill="#E5E5E4" d="M13.247,125.731c0-0.205,0.057-0.379,0.172-0.524c0.114-0.145,0.277-0.217,0.488-0.217
				c0.211,0,0.375,0.072,0.493,0.217c0.117,0.145,0.176,0.319,0.176,0.524c0,0.205-0.059,0.378-0.176,0.52
				c-0.118,0.141-0.282,0.212-0.493,0.212c-0.211,0-0.374-0.071-0.488-0.212C13.304,126.11,13.247,125.936,13.247,125.731z
				 M14.404,138.327h-1.012v-9.777h1.012V138.327z"/>
			<path fill="#E5E5E4" d="M19.153,128.551l0.027,1.554c0.289-0.53,0.658-0.952,1.107-1.265c0.449-0.313,0.96-0.47,1.531-0.47
				c0.41,0,0.775,0.067,1.098,0.199c0.322,0.133,0.597,0.343,0.823,0.632c0.225,0.289,0.399,0.661,0.519,1.116
				c0.121,0.455,0.181,1.005,0.181,1.649v6.361h-0.994v-6.37c0-0.5-0.044-0.919-0.131-1.257c-0.088-0.337-0.212-0.607-0.375-0.808
				c-0.163-0.202-0.36-0.346-0.592-0.434c-0.232-0.087-0.493-0.131-0.782-0.131c-0.301,0-0.577,0.062-0.827,0.185
				c-0.25,0.123-0.474,0.288-0.673,0.492c-0.199,0.205-0.371,0.44-0.515,0.705c-0.145,0.265-0.262,0.542-0.352,0.831v6.786h-1.003
				v-9.777H19.153z"/>
			<path fill="#E5E5E4" d="M27.761,132.987c0-0.819,0.074-1.519,0.222-2.101c0.148-0.581,0.36-1.059,0.637-1.432
				s0.613-0.648,1.007-0.822c0.394-0.175,0.836-0.262,1.324-0.262c0.585,0,1.079,0.131,1.486,0.393
				c0.407,0.262,0.739,0.628,0.999,1.098v-5.412h1.003v13.879h-0.94l-0.046-1.256c-0.258,0.452-0.594,0.804-1.007,1.057
				c-0.412,0.254-0.914,0.38-1.505,0.38c-0.487,0-0.927-0.092-1.319-0.276c-0.392-0.184-0.725-0.465-0.999-0.845
				c-0.274-0.379-0.487-0.858-0.637-1.437c-0.151-0.578-0.227-1.261-0.227-2.051V132.987z M28.783,133.899
				c0,1.253,0.188,2.175,0.564,2.765c0.377,0.59,0.974,0.885,1.794,0.885c0.295,0,0.562-0.037,0.8-0.113
				c0.238-0.075,0.452-0.18,0.642-0.316c0.19-0.135,0.354-0.295,0.492-0.479c0.139-0.184,0.26-0.384,0.362-0.6v-5.07
				c-0.09-0.217-0.202-0.425-0.334-0.623c-0.133-0.199-0.291-0.372-0.475-0.52s-0.398-0.267-0.642-0.357
				c-0.244-0.091-0.522-0.136-0.836-0.136c-0.825,0-1.426,0.297-1.803,0.89c-0.376,0.593-0.564,1.513-0.564,2.76V133.899z"/>
			<path fill="#E5E5E4" d="M41.393,138.508c-0.542,0-1.039-0.089-1.491-0.267c-0.452-0.178-0.842-0.449-1.17-0.813
				c-0.328-0.365-0.583-0.824-0.764-1.378c-0.18-0.554-0.271-1.211-0.271-1.97v-1.111c0-0.819,0.096-1.519,0.289-2.101
				c0.192-0.581,0.45-1.057,0.772-1.428c0.322-0.37,0.696-0.641,1.121-0.813c0.425-0.172,0.872-0.257,1.342-0.257
				c1.072,0,1.887,0.354,2.444,1.062c0.558,0.708,0.836,1.79,0.836,3.248v0.85h-5.81v0.551c0,0.597,0.067,1.115,0.199,1.554
				c0.133,0.44,0.319,0.805,0.56,1.094c0.241,0.289,0.53,0.504,0.867,0.646c0.338,0.142,0.711,0.213,1.121,0.213
				c0.506,0,0.946-0.086,1.32-0.258c0.373-0.172,0.714-0.438,1.021-0.8l0.524,0.669c-0.133,0.181-0.288,0.349-0.465,0.506
				c-0.178,0.157-0.385,0.295-0.624,0.416c-0.238,0.12-0.508,0.216-0.809,0.285C42.104,138.473,41.767,138.508,41.393,138.508z
				 M41.222,129.309c-0.355,0-0.682,0.06-0.98,0.181c-0.298,0.12-0.557,0.312-0.777,0.574c-0.22,0.262-0.396,0.601-0.529,1.017
				c-0.132,0.415-0.211,0.918-0.234,1.509h4.797v-0.262c-0.012-0.476-0.066-0.9-0.162-1.274c-0.096-0.373-0.236-0.69-0.42-0.949
				c-0.184-0.259-0.417-0.456-0.7-0.592C41.932,129.377,41.601,129.309,41.222,129.309z"/>
			<path fill="#E5E5E4" d="M54.32,133.899c0,0.79-0.07,1.473-0.212,2.051c-0.142,0.578-0.345,1.057-0.61,1.437
				c-0.266,0.379-0.593,0.661-0.985,0.845s-0.835,0.276-1.329,0.276c-0.591,0-1.095-0.119-1.513-0.357
				c-0.419-0.238-0.761-0.571-1.026-0.999v4.934h-0.994v-13.536h0.922l0.045,1.337c0.271-0.476,0.614-0.848,1.03-1.116
				c0.415-0.268,0.919-0.402,1.509-0.402c0.506,0,0.955,0.087,1.347,0.262c0.392,0.174,0.723,0.449,0.994,0.822
				c0.271,0.373,0.476,0.851,0.614,1.432c0.139,0.582,0.208,1.282,0.208,2.101V133.899z M53.317,132.987
				c0-1.253-0.194-2.175-0.583-2.765c-0.388-0.591-0.995-0.886-1.82-0.886c-0.308,0-0.583,0.044-0.827,0.131
				c-0.244,0.087-0.458,0.206-0.642,0.357c-0.184,0.151-0.34,0.322-0.47,0.515c-0.129,0.193-0.239,0.398-0.329,0.615v5.15
				c0.096,0.211,0.215,0.406,0.357,0.587c0.141,0.18,0.306,0.337,0.493,0.47c0.186,0.133,0.399,0.235,0.637,0.307
				c0.238,0.072,0.505,0.108,0.8,0.108c0.813,0,1.414-0.3,1.803-0.899c0.389-0.599,0.583-1.525,0.583-2.779V132.987z"/>
			<path fill="#E5E5E4" d="M60.895,138.508c-0.542,0-1.039-0.089-1.49-0.267c-0.452-0.178-0.842-0.449-1.17-0.813
				c-0.329-0.365-0.583-0.824-0.764-1.378c-0.181-0.554-0.271-1.211-0.271-1.97v-1.111c0-0.819,0.096-1.519,0.289-2.101
				c0.192-0.581,0.45-1.057,0.772-1.428c0.322-0.37,0.696-0.641,1.121-0.813c0.425-0.172,0.872-0.257,1.342-0.257
				c1.072,0,1.887,0.354,2.444,1.062c0.557,0.708,0.836,1.79,0.836,3.248v0.85h-5.81v0.551c0,0.597,0.066,1.115,0.199,1.554
				c0.133,0.44,0.319,0.805,0.56,1.094c0.241,0.289,0.53,0.504,0.867,0.646c0.337,0.142,0.711,0.213,1.121,0.213
				c0.506,0,0.945-0.086,1.319-0.258c0.373-0.172,0.714-0.438,1.021-0.8l0.525,0.669c-0.133,0.181-0.288,0.349-0.465,0.506
				c-0.178,0.157-0.386,0.295-0.624,0.416c-0.238,0.12-0.508,0.216-0.809,0.285C61.606,138.473,61.269,138.508,60.895,138.508z
				 M60.723,129.309c-0.355,0-0.682,0.06-0.98,0.181c-0.298,0.12-0.558,0.312-0.778,0.574c-0.22,0.262-0.396,0.601-0.528,1.017
				c-0.133,0.415-0.211,0.918-0.235,1.509H63v-0.262c-0.012-0.476-0.067-0.9-0.162-1.274c-0.097-0.373-0.236-0.69-0.42-0.949
				c-0.184-0.259-0.418-0.456-0.701-0.592C61.434,129.377,61.103,129.309,60.723,129.309z"/>
			<path fill="#E5E5E4" d="M68.112,128.551l0.027,1.554c0.289-0.53,0.658-0.952,1.106-1.265c0.449-0.313,0.96-0.47,1.532-0.47
				c0.409,0,0.775,0.067,1.098,0.199c0.322,0.133,0.596,0.343,0.823,0.632c0.225,0.289,0.399,0.661,0.519,1.116
				c0.12,0.455,0.181,1.005,0.181,1.649v6.361h-0.994v-6.37c0-0.5-0.044-0.919-0.131-1.257c-0.087-0.337-0.212-0.607-0.375-0.808
				c-0.162-0.202-0.36-0.346-0.592-0.434c-0.232-0.087-0.492-0.131-0.781-0.131c-0.301,0-0.577,0.062-0.827,0.185
				c-0.25,0.123-0.474,0.288-0.673,0.492c-0.199,0.205-0.371,0.44-0.515,0.705c-0.145,0.265-0.262,0.542-0.352,0.831v6.786h-1.003
				v-9.777H68.112z"/>
			<path fill="#E5E5E4" d="M76.72,132.987c0-0.819,0.074-1.519,0.221-2.101c0.147-0.581,0.36-1.059,0.637-1.432
				c0.277-0.373,0.613-0.648,1.008-0.822c0.394-0.175,0.836-0.262,1.324-0.262c0.584,0,1.08,0.131,1.486,0.393
				c0.406,0.262,0.74,0.628,0.999,1.098v-5.412h1.003v13.879h-0.94l-0.045-1.256c-0.26,0.452-0.595,0.804-1.007,1.057
				c-0.413,0.254-0.914,0.38-1.505,0.38c-0.488,0-0.928-0.092-1.32-0.276c-0.392-0.184-0.724-0.465-0.998-0.845
				c-0.274-0.379-0.487-0.858-0.637-1.437c-0.151-0.578-0.225-1.261-0.225-2.051V132.987z M77.74,133.899
				c0,1.253,0.188,2.175,0.565,2.765c0.376,0.59,0.974,0.885,1.793,0.885c0.295,0,0.561-0.037,0.8-0.113
				c0.238-0.075,0.451-0.18,0.641-0.316c0.19-0.135,0.354-0.295,0.493-0.479c0.139-0.184,0.258-0.384,0.361-0.6v-5.07
				c-0.091-0.217-0.202-0.425-0.334-0.623c-0.133-0.199-0.291-0.372-0.475-0.52c-0.184-0.147-0.398-0.267-0.641-0.357
				c-0.244-0.091-0.523-0.136-0.836-0.136c-0.826,0-1.426,0.297-1.803,0.89c-0.377,0.593-0.565,1.513-0.565,2.76V133.899z"/>
			<path fill="#E5E5E4" d="M90.352,138.508c-0.542,0-1.039-0.089-1.491-0.267c-0.452-0.178-0.841-0.449-1.17-0.813
				c-0.328-0.365-0.583-0.824-0.763-1.378c-0.18-0.554-0.271-1.211-0.271-1.97v-1.111c0-0.819,0.096-1.519,0.289-2.101
				c0.192-0.581,0.45-1.057,0.773-1.428c0.322-0.37,0.696-0.641,1.121-0.813c0.425-0.172,0.872-0.257,1.342-0.257
				c1.072,0,1.887,0.354,2.444,1.062c0.558,0.708,0.836,1.79,0.836,3.248v0.85h-5.81v0.551c0,0.597,0.067,1.115,0.199,1.554
				c0.133,0.44,0.319,0.805,0.56,1.094c0.241,0.289,0.53,0.504,0.868,0.646c0.338,0.142,0.71,0.213,1.121,0.213
				c0.506,0,0.946-0.086,1.319-0.258s0.714-0.438,1.021-0.8l0.524,0.669c-0.132,0.181-0.287,0.349-0.465,0.506
				c-0.178,0.157-0.385,0.295-0.624,0.416c-0.238,0.12-0.507,0.216-0.808,0.285C91.062,138.473,90.725,138.508,90.352,138.508z
				 M90.18,129.309c-0.356,0-0.682,0.06-0.981,0.181c-0.298,0.12-0.557,0.312-0.776,0.574c-0.22,0.262-0.396,0.601-0.529,1.017
				c-0.133,0.415-0.211,0.918-0.235,1.509h4.798v-0.262c-0.012-0.476-0.066-0.9-0.163-1.274c-0.096-0.373-0.236-0.69-0.42-0.949
				c-0.184-0.259-0.417-0.456-0.7-0.592C90.891,129.377,90.56,129.309,90.18,129.309z"/>
			<path fill="#E5E5E4" d="M97.568,128.551l0.027,1.554c0.289-0.53,0.658-0.952,1.107-1.265c0.449-0.313,0.96-0.47,1.531-0.47
				c0.41,0,0.775,0.067,1.098,0.199c0.322,0.133,0.597,0.343,0.823,0.632c0.225,0.289,0.399,0.661,0.519,1.116
				c0.121,0.455,0.181,1.005,0.181,1.649v6.361h-0.994v-6.37c0-0.5-0.044-0.919-0.131-1.257c-0.088-0.337-0.212-0.607-0.375-0.808
				c-0.163-0.202-0.36-0.346-0.592-0.434c-0.232-0.087-0.493-0.131-0.782-0.131c-0.301,0-0.577,0.062-0.827,0.185
				c-0.25,0.123-0.474,0.288-0.673,0.492c-0.199,0.205-0.371,0.44-0.515,0.705c-0.145,0.265-0.262,0.542-0.352,0.831v6.786H96.61
				v-9.777H97.568z"/>
			<path fill="#E5E5E4" d="M108.047,126.056v2.494h1.672v0.903h-1.672v6.497c0,0.338,0.029,0.61,0.086,0.818
				c0.057,0.208,0.134,0.37,0.23,0.484c0.097,0.114,0.207,0.191,0.33,0.23c0.124,0.039,0.255,0.058,0.393,0.058
				c0.133,0,0.262-0.01,0.389-0.031c0.126-0.021,0.238-0.041,0.334-0.059l0.027,0.903c-0.108,0.048-0.251,0.086-0.429,0.113
				c-0.177,0.027-0.363,0.041-0.555,0.041c-0.259,0-0.498-0.042-0.718-0.126c-0.22-0.085-0.411-0.226-0.574-0.425
				c-0.163-0.199-0.289-0.462-0.379-0.79c-0.09-0.328-0.135-0.737-0.135-1.225v-6.488h-1.509v-0.903h1.509v-2.494H108.047z"/>
			<path fill="#E5E5E4" d="M121.187,137.577c0.277,0,0.545-0.036,0.804-0.108c0.26-0.072,0.489-0.196,0.692-0.371
				c0.201-0.174,0.367-0.408,0.497-0.7c0.129-0.292,0.203-0.658,0.221-1.098h0.967c-0.024,0.524-0.123,0.987-0.298,1.387
				c-0.175,0.4-0.407,0.735-0.696,1.003c-0.289,0.268-0.62,0.471-0.994,0.61c-0.373,0.139-0.771,0.208-1.193,0.208
				c-1.175,0-2.059-0.38-2.652-1.139c-0.594-0.759-0.89-1.885-0.89-3.379v-1.103c0-1.494,0.296-2.62,0.89-3.38
				c0.593-0.759,1.474-1.138,2.643-1.138c0.445,0,0.86,0.071,1.242,0.212c0.382,0.142,0.714,0.356,0.994,0.642
				c0.28,0.286,0.505,0.648,0.674,1.084c0.169,0.437,0.262,0.95,0.28,1.54h-0.967c-0.018-0.451-0.087-0.839-0.208-1.161
				c-0.121-0.322-0.279-0.586-0.474-0.791c-0.196-0.205-0.425-0.354-0.687-0.447c-0.262-0.093-0.547-0.14-0.853-0.14
				c-0.464,0-0.856,0.08-1.175,0.239c-0.319,0.16-0.578,0.393-0.778,0.701c-0.199,0.307-0.343,0.682-0.433,1.125
				c-0.09,0.443-0.136,0.947-0.136,1.513v1.103c0,0.572,0.043,1.081,0.131,1.527c0.087,0.445,0.23,0.82,0.429,1.125
				c0.199,0.305,0.459,0.537,0.782,0.696C120.321,137.497,120.717,137.577,121.187,137.577z"/>
			<path fill="#E5E5E4" d="M131.34,129.49c-0.103-0.018-0.203-0.033-0.303-0.046c-0.1-0.012-0.21-0.018-0.329-0.018
				c-0.296,0-0.562,0.053-0.8,0.158c-0.238,0.106-0.447,0.253-0.628,0.443c-0.181,0.19-0.336,0.417-0.465,0.682
				c-0.13,0.265-0.23,0.554-0.303,0.867v6.75h-1.003v-9.777h0.985l0.018,1.464c0.223-0.512,0.518-0.914,0.885-1.206
				c0.367-0.292,0.819-0.438,1.356-0.438c0.108,0,0.222,0.012,0.343,0.036c0.12,0.024,0.208,0.051,0.262,0.081L131.34,129.49z"/>
			<path fill="#E5E5E4" d="M137.174,138.508c-0.542,0-1.039-0.089-1.49-0.267c-0.452-0.178-0.842-0.449-1.17-0.813
				c-0.329-0.365-0.583-0.824-0.764-1.378c-0.181-0.554-0.271-1.211-0.271-1.97v-1.111c0-0.819,0.096-1.519,0.289-2.101
				c0.192-0.581,0.45-1.057,0.772-1.428c0.322-0.37,0.696-0.641,1.121-0.813c0.425-0.172,0.872-0.257,1.342-0.257
				c1.072,0,1.887,0.354,2.444,1.062c0.557,0.708,0.836,1.79,0.836,3.248v0.85h-5.81v0.551c0,0.597,0.066,1.115,0.199,1.554
				c0.133,0.44,0.319,0.805,0.56,1.094c0.241,0.289,0.53,0.504,0.867,0.646c0.337,0.142,0.711,0.213,1.121,0.213
				c0.506,0,0.945-0.086,1.319-0.258c0.373-0.172,0.714-0.438,1.021-0.8l0.525,0.669c-0.133,0.181-0.288,0.349-0.465,0.506
				c-0.178,0.157-0.386,0.295-0.624,0.416c-0.238,0.12-0.508,0.216-0.809,0.285C137.885,138.473,137.548,138.508,137.174,138.508z
				 M137.002,129.309c-0.355,0-0.682,0.06-0.98,0.181c-0.298,0.12-0.558,0.312-0.778,0.574c-0.22,0.262-0.396,0.601-0.528,1.017
				c-0.133,0.415-0.211,0.918-0.235,1.509h4.798v-0.262c-0.012-0.476-0.067-0.9-0.162-1.274c-0.097-0.373-0.236-0.69-0.42-0.949
				c-0.184-0.259-0.418-0.456-0.701-0.592C137.713,129.377,137.381,129.309,137.002,129.309z"/>
			<path fill="#E5E5E4" d="M148.602,138.327c-0.048-0.163-0.088-0.366-0.118-0.61c-0.03-0.244-0.052-0.493-0.063-0.746
				c-0.126,0.205-0.277,0.399-0.452,0.583c-0.174,0.184-0.374,0.346-0.601,0.488c-0.225,0.142-0.477,0.255-0.754,0.339
				c-0.277,0.084-0.575,0.126-0.894,0.126c-0.404,0-0.77-0.058-1.098-0.172c-0.328-0.114-0.61-0.286-0.845-0.515
				c-0.235-0.229-0.416-0.515-0.542-0.858c-0.126-0.344-0.19-0.744-0.19-1.202c0-0.451,0.078-0.869,0.235-1.251
				c0.157-0.383,0.39-0.713,0.7-0.99c0.31-0.277,0.697-0.494,1.161-0.651c0.464-0.157,1.003-0.235,1.618-0.235h1.653v-1.364
				c0-0.699-0.173-1.2-0.519-1.505s-0.855-0.456-1.523-0.456c-0.313,0-0.601,0.048-0.863,0.145c-0.262,0.096-0.487,0.23-0.673,0.402
				c-0.187,0.172-0.332,0.377-0.434,0.614c-0.102,0.238-0.153,0.499-0.153,0.782l-1.003-0.009c0-0.379,0.075-0.742,0.225-1.089
				c0.151-0.346,0.365-0.652,0.642-0.917c0.277-0.265,0.611-0.476,1.003-0.633c0.391-0.156,0.825-0.235,1.301-0.235
				c0.439,0,0.842,0.053,1.206,0.158c0.365,0.105,0.68,0.274,0.945,0.506c0.265,0.232,0.471,0.533,0.619,0.903
				c0.147,0.371,0.221,0.821,0.221,1.351v4.988c0,0.169,0.006,0.343,0.018,0.524c0.012,0.181,0.028,0.357,0.049,0.528
				c0.021,0.172,0.048,0.334,0.081,0.488c0.033,0.153,0.071,0.288,0.113,0.402v0.108H148.602z M145.846,137.541
				c0.313,0,0.607-0.043,0.881-0.131c0.274-0.087,0.519-0.208,0.736-0.361s0.405-0.333,0.565-0.538
				c0.159-0.205,0.288-0.425,0.384-0.659v-2.377h-1.509c-0.946,0-1.656,0.199-2.133,0.597c-0.476,0.398-0.714,0.934-0.714,1.608
				c0,0.645,0.158,1.116,0.475,1.414S145.285,137.541,145.846,137.541z"/>
			<path fill="#E5E5E4" d="M154.67,126.056v2.494h1.672v0.903h-1.672v6.497c0,0.338,0.029,0.61,0.086,0.818
				c0.057,0.208,0.134,0.37,0.23,0.484c0.097,0.114,0.207,0.191,0.33,0.23c0.124,0.039,0.255,0.058,0.393,0.058
				c0.133,0,0.262-0.01,0.389-0.031c0.126-0.021,0.238-0.041,0.334-0.059l0.027,0.903c-0.108,0.048-0.251,0.086-0.429,0.113
				c-0.177,0.027-0.363,0.041-0.555,0.041c-0.259,0-0.498-0.042-0.718-0.126c-0.22-0.085-0.411-0.226-0.574-0.425
				c-0.163-0.199-0.289-0.462-0.379-0.79c-0.09-0.328-0.135-0.737-0.135-1.225v-6.488h-1.509v-0.903h1.509v-2.494H154.67z"/>
			<path fill="#E5E5E4" d="M159.51,125.731c0-0.205,0.057-0.379,0.172-0.524c0.114-0.145,0.277-0.217,0.487-0.217
				c0.211,0,0.375,0.072,0.493,0.217c0.118,0.145,0.176,0.319,0.176,0.524c0,0.205-0.058,0.378-0.176,0.52
				c-0.118,0.141-0.282,0.212-0.493,0.212c-0.211,0-0.373-0.071-0.487-0.212C159.567,126.11,159.51,125.936,159.51,125.731z
				 M160.666,138.327h-1.012v-9.777h1.012V138.327z"/>
			<path fill="#E5E5E4" d="M167.052,136.755l2.404-8.204h1.03l-3.045,9.777h-0.795l-3.063-9.777h1.031L167.052,136.755z"/>
			<path fill="#E5E5E4" d="M176.436,138.508c-0.542,0-1.039-0.089-1.49-0.267c-0.452-0.178-0.842-0.449-1.17-0.813
				c-0.329-0.365-0.583-0.824-0.764-1.378c-0.181-0.554-0.271-1.211-0.271-1.97v-1.111c0-0.819,0.096-1.519,0.289-2.101
				c0.192-0.581,0.45-1.057,0.772-1.428c0.322-0.37,0.696-0.641,1.121-0.813c0.425-0.172,0.872-0.257,1.342-0.257
				c1.072,0,1.887,0.354,2.444,1.062c0.557,0.708,0.836,1.79,0.836,3.248v0.85h-5.81v0.551c0,0.597,0.066,1.115,0.199,1.554
				c0.133,0.44,0.319,0.805,0.56,1.094c0.241,0.289,0.53,0.504,0.867,0.646c0.337,0.142,0.711,0.213,1.121,0.213
				c0.506,0,0.945-0.086,1.319-0.258c0.373-0.172,0.714-0.438,1.021-0.8l0.525,0.669c-0.133,0.181-0.288,0.349-0.465,0.506
				c-0.178,0.157-0.386,0.295-0.624,0.416c-0.238,0.12-0.508,0.216-0.809,0.285C177.147,138.473,176.81,138.508,176.436,138.508z
				 M176.265,129.309c-0.355,0-0.682,0.06-0.98,0.181c-0.298,0.12-0.558,0.312-0.778,0.574c-0.22,0.262-0.396,0.601-0.528,1.017
				c-0.133,0.415-0.211,0.918-0.235,1.509h4.798v-0.262c-0.012-0.476-0.067-0.9-0.162-1.274c-0.097-0.373-0.236-0.69-0.42-0.949
				c-0.184-0.259-0.418-0.456-0.701-0.592C176.976,129.377,176.644,129.309,176.265,129.309z"/>
			<path fill="#E5E5E4" d="M194.538,133.899c0,0.79-0.07,1.473-0.212,2.051c-0.142,0.578-0.345,1.057-0.61,1.437
				c-0.266,0.379-0.593,0.661-0.985,0.845c-0.392,0.184-0.835,0.276-1.329,0.276c-0.591,0-1.095-0.119-1.513-0.357
				c-0.419-0.238-0.761-0.571-1.026-0.999v4.934h-0.994v-13.536h0.922l0.045,1.337c0.271-0.476,0.614-0.848,1.03-1.116
				c0.415-0.268,0.919-0.402,1.509-0.402c0.506,0,0.955,0.087,1.347,0.262c0.392,0.174,0.723,0.449,0.994,0.822
				s0.476,0.851,0.614,1.432c0.139,0.582,0.208,1.282,0.208,2.101V133.899z M193.535,132.987c0-1.253-0.194-2.175-0.583-2.765
				c-0.388-0.591-0.995-0.886-1.82-0.886c-0.308,0-0.583,0.044-0.827,0.131c-0.244,0.087-0.458,0.206-0.642,0.357
				c-0.184,0.151-0.34,0.322-0.47,0.515c-0.129,0.193-0.239,0.398-0.329,0.615v5.15c0.096,0.211,0.215,0.406,0.357,0.587
				c0.141,0.18,0.306,0.337,0.493,0.47c0.186,0.133,0.399,0.235,0.637,0.307c0.238,0.072,0.505,0.108,0.8,0.108
				c0.813,0,1.414-0.3,1.803-0.899c0.389-0.599,0.583-1.525,0.583-2.779V132.987z"/>
			<path fill="#E5E5E4" d="M203.056,138.327c-0.048-0.163-0.088-0.366-0.118-0.61c-0.03-0.244-0.052-0.493-0.063-0.746
				c-0.126,0.205-0.277,0.399-0.452,0.583c-0.174,0.184-0.374,0.346-0.601,0.488c-0.225,0.142-0.477,0.255-0.754,0.339
				c-0.277,0.084-0.575,0.126-0.894,0.126c-0.404,0-0.77-0.058-1.098-0.172c-0.328-0.114-0.61-0.286-0.845-0.515
				c-0.235-0.229-0.416-0.515-0.542-0.858c-0.126-0.344-0.19-0.744-0.19-1.202c0-0.451,0.078-0.869,0.235-1.251
				c0.157-0.383,0.39-0.713,0.7-0.99c0.31-0.277,0.697-0.494,1.161-0.651c0.464-0.157,1.003-0.235,1.618-0.235h1.653v-1.364
				c0-0.699-0.173-1.2-0.519-1.505s-0.855-0.456-1.523-0.456c-0.313,0-0.601,0.048-0.863,0.145c-0.262,0.096-0.487,0.23-0.673,0.402
				c-0.187,0.172-0.332,0.377-0.434,0.614c-0.102,0.238-0.153,0.499-0.153,0.782l-1.003-0.009c0-0.379,0.075-0.742,0.225-1.089
				c0.151-0.346,0.365-0.652,0.642-0.917c0.277-0.265,0.611-0.476,1.003-0.633c0.391-0.156,0.825-0.235,1.301-0.235
				c0.439,0,0.842,0.053,1.206,0.158c0.365,0.105,0.68,0.274,0.945,0.506c0.265,0.232,0.471,0.533,0.619,0.903
				c0.147,0.371,0.221,0.821,0.221,1.351v4.988c0,0.169,0.005,0.343,0.018,0.524c0.012,0.181,0.028,0.357,0.049,0.528
				c0.021,0.172,0.048,0.334,0.081,0.488c0.033,0.153,0.071,0.288,0.113,0.402v0.108H203.056z M200.3,137.541
				c0.313,0,0.607-0.043,0.881-0.131c0.274-0.087,0.519-0.208,0.736-0.361s0.405-0.333,0.565-0.538
				c0.159-0.205,0.288-0.425,0.384-0.659v-2.377h-1.509c-0.946,0-1.656,0.199-2.133,0.597c-0.476,0.398-0.714,0.934-0.714,1.608
				c0,0.645,0.158,1.116,0.475,1.414S199.74,137.541,200.3,137.541z"/>
			<path fill="#E5E5E4" d="M211.447,129.49c-0.103-0.018-0.203-0.033-0.303-0.046c-0.099-0.012-0.209-0.018-0.329-0.018
				c-0.295,0-0.562,0.053-0.8,0.158c-0.238,0.106-0.447,0.253-0.628,0.443c-0.18,0.19-0.335,0.417-0.465,0.682
				c-0.13,0.265-0.23,0.554-0.302,0.867v6.75h-1.003v-9.777h0.985l0.018,1.464c0.223-0.512,0.518-0.914,0.885-1.206
				c0.367-0.292,0.819-0.438,1.355-0.438c0.108,0,0.223,0.012,0.344,0.036c0.12,0.024,0.208,0.051,0.262,0.081L211.447,129.49z"/>
			<path fill="#E5E5E4" d="M216.188,126.056v2.494h1.672v0.903h-1.672v6.497c0,0.338,0.029,0.61,0.086,0.818
				c0.057,0.208,0.134,0.37,0.23,0.484c0.097,0.114,0.207,0.191,0.33,0.23c0.124,0.039,0.255,0.058,0.393,0.058
				c0.133,0,0.262-0.01,0.389-0.031c0.126-0.021,0.238-0.041,0.334-0.059l0.027,0.903c-0.108,0.048-0.251,0.086-0.429,0.113
				c-0.177,0.027-0.363,0.041-0.555,0.041c-0.259,0-0.498-0.042-0.718-0.126c-0.22-0.085-0.411-0.226-0.574-0.425
				c-0.163-0.199-0.289-0.462-0.379-0.79c-0.09-0.328-0.135-0.737-0.135-1.225v-6.488h-1.509v-0.903h1.509v-2.494H216.188z"/>
			<path fill="#E5E5E4" d="M222.021,128.551l0.027,1.554c0.289-0.53,0.658-0.952,1.107-1.265c0.449-0.313,0.96-0.47,1.531-0.47
				c0.41,0,0.775,0.067,1.098,0.199c0.322,0.133,0.597,0.343,0.823,0.632c0.225,0.289,0.399,0.661,0.519,1.116
				c0.121,0.455,0.181,1.005,0.181,1.649v6.361h-0.994v-6.37c0-0.5-0.044-0.919-0.131-1.257c-0.088-0.337-0.212-0.607-0.375-0.808
				c-0.163-0.202-0.36-0.346-0.592-0.434c-0.232-0.087-0.493-0.131-0.782-0.131c-0.301,0-0.577,0.062-0.827,0.185
				c-0.25,0.123-0.474,0.288-0.673,0.492c-0.199,0.205-0.371,0.44-0.515,0.705c-0.145,0.265-0.262,0.542-0.352,0.831v6.786h-1.003
				v-9.777H222.021z"/>
			<path fill="#E5E5E4" d="M234.217,138.508c-0.542,0-1.039-0.089-1.491-0.267c-0.452-0.178-0.842-0.449-1.17-0.813
				c-0.328-0.365-0.583-0.824-0.764-1.378c-0.18-0.554-0.271-1.211-0.271-1.97v-1.111c0-0.819,0.096-1.519,0.289-2.101
				c0.192-0.581,0.45-1.057,0.772-1.428c0.322-0.37,0.696-0.641,1.121-0.813c0.425-0.172,0.872-0.257,1.342-0.257
				c1.072,0,1.887,0.354,2.444,1.062c0.558,0.708,0.836,1.79,0.836,3.248v0.85h-5.81v0.551c0,0.597,0.067,1.115,0.199,1.554
				c0.133,0.44,0.319,0.805,0.56,1.094c0.241,0.289,0.53,0.504,0.867,0.646c0.338,0.142,0.711,0.213,1.121,0.213
				c0.506,0,0.946-0.086,1.32-0.258c0.373-0.172,0.714-0.438,1.021-0.8l0.524,0.669c-0.133,0.181-0.288,0.349-0.465,0.506
				c-0.178,0.157-0.385,0.295-0.624,0.416c-0.238,0.12-0.508,0.216-0.809,0.285C234.927,138.473,234.59,138.508,234.217,138.508z
				 M234.045,129.309c-0.355,0-0.682,0.06-0.98,0.181c-0.298,0.12-0.557,0.312-0.777,0.574c-0.22,0.262-0.396,0.601-0.529,1.017
				c-0.132,0.415-0.211,0.918-0.234,1.509h4.797v-0.262c-0.012-0.476-0.066-0.9-0.162-1.274c-0.096-0.373-0.236-0.69-0.42-0.949
				c-0.184-0.259-0.417-0.456-0.7-0.592C234.755,129.377,234.424,129.309,234.045,129.309z"/>
			<path fill="#E5E5E4" d="M244.306,129.49c-0.102-0.018-0.203-0.033-0.302-0.046c-0.099-0.012-0.209-0.018-0.33-0.018
				c-0.295,0-0.562,0.053-0.8,0.158c-0.238,0.106-0.448,0.253-0.628,0.443c-0.18,0.19-0.335,0.417-0.465,0.682
				c-0.13,0.265-0.23,0.554-0.302,0.867v6.75h-1.003v-9.777h0.984l0.019,1.464c0.222-0.512,0.518-0.914,0.885-1.206
				c0.367-0.292,0.819-0.438,1.355-0.438c0.109,0,0.223,0.012,0.344,0.036c0.12,0.024,0.208,0.051,0.262,0.081L244.306,129.49z"/>
			<path fill="#E5E5E4" d="M251.975,135.924c0-0.199-0.038-0.385-0.113-0.56c-0.076-0.174-0.199-0.343-0.371-0.506
				c-0.172-0.163-0.398-0.328-0.677-0.497c-0.28-0.168-0.628-0.349-1.044-0.542c-0.446-0.199-0.844-0.39-1.193-0.574
				c-0.349-0.184-0.643-0.382-0.881-0.596c-0.238-0.214-0.42-0.455-0.547-0.723c-0.126-0.268-0.189-0.586-0.189-0.954
				c0-0.361,0.067-0.7,0.203-1.016c0.136-0.316,0.33-0.592,0.583-0.827c0.253-0.235,0.56-0.42,0.922-0.555
				c0.361-0.136,0.765-0.203,1.211-0.203c0.476,0,0.903,0.071,1.283,0.212c0.379,0.142,0.701,0.339,0.962,0.592
				c0.262,0.253,0.462,0.556,0.601,0.908c0.139,0.352,0.208,0.736,0.208,1.152h-1.003c0-0.253-0.045-0.495-0.136-0.728
				c-0.09-0.232-0.223-0.437-0.397-0.614c-0.175-0.178-0.389-0.319-0.642-0.425c-0.253-0.106-0.546-0.158-0.877-0.158
				c-0.344,0-0.636,0.047-0.877,0.14c-0.241,0.093-0.44,0.217-0.597,0.37c-0.156,0.154-0.271,0.329-0.343,0.524
				c-0.073,0.196-0.108,0.393-0.108,0.592c0,0.199,0.03,0.375,0.09,0.528c0.06,0.153,0.17,0.302,0.33,0.447
				c0.159,0.145,0.375,0.294,0.646,0.448c0.271,0.153,0.62,0.333,1.048,0.537c0.452,0.199,0.858,0.392,1.22,0.578
				c0.362,0.187,0.668,0.393,0.917,0.619c0.25,0.225,0.443,0.48,0.578,0.763c0.135,0.283,0.203,0.621,0.203,1.012
				c0,0.404-0.073,0.768-0.217,1.093c-0.145,0.325-0.351,0.602-0.619,0.831c-0.268,0.229-0.591,0.405-0.967,0.528
				c-0.377,0.123-0.794,0.185-1.252,0.185c-0.53,0-0.998-0.077-1.401-0.23c-0.404-0.154-0.742-0.36-1.016-0.619
				s-0.482-0.56-0.624-0.903c-0.142-0.344-0.212-0.708-0.212-1.093h1.012c0.018,0.385,0.098,0.702,0.24,0.949
				c0.141,0.247,0.318,0.443,0.528,0.587c0.211,0.145,0.446,0.244,0.705,0.298c0.259,0.054,0.515,0.081,0.768,0.081
				c0.331,0,0.625-0.043,0.881-0.131c0.256-0.087,0.47-0.205,0.641-0.352c0.172-0.147,0.301-0.322,0.389-0.524
				S251.975,136.153,251.975,135.924z"/>
		</g>
	</g>
	<g>
		<path fill="#E5E5E4" d="M28.441,116.67c-8.906,0-16.206-7.254-16.206-16.206s7.299-16.206,16.206-16.206
			c4.682,0,9.135,2.02,12.212,5.509c0.551,0.643,0.459,1.561-0.137,2.066c-0.597,0.551-1.516,0.505-2.067-0.138
			c-2.525-2.892-6.151-4.544-10.008-4.544c-7.299,0-13.267,5.968-13.267,13.313c0,7.299,5.968,13.267,13.267,13.267
			c3.673,0,7.161-1.515,9.64-4.132v-6.519h-8.493c-0.826,0-1.469-0.643-1.469-1.469s0.643-1.469,1.469-1.469h9.962
			c0.826,0,1.469,0.642,1.469,1.469v8.539c0,0.367-0.137,0.688-0.367,0.964C37.577,114.65,33.124,116.67,28.441,116.67z"/>
		<path fill="#E5E5E4" d="M59.522,116.67c-7.161,0-12.992-5.831-12.992-13.038V85.728c0-0.826,0.643-1.469,1.423-1.469
			c0.827,0,1.469,0.643,1.469,1.469v17.904c0,5.601,4.545,10.1,10.099,10.1c5.601,0,10.1-4.499,10.1-10.1V85.728
			c0-0.826,0.643-1.469,1.469-1.469c0.827,0,1.469,0.643,1.469,1.469v17.904C72.56,110.839,66.73,116.67,59.522,116.67z"/>
		<path fill="#E5E5E4" d="M79.311,116.67c-0.827,0-1.469-0.643-1.469-1.469V85.728c0-0.826,0.642-1.469,1.469-1.469
			c0.826,0,1.469,0.643,1.469,1.469v29.472C80.78,116.027,80.137,116.67,79.311,116.67z"/>
		<path fill="#E5E5E4" d="M94.966,116.67h-7.437c-0.826,0-1.469-0.643-1.469-1.469V85.728c0-0.826,0.642-1.469,1.469-1.469h7.437
			c8.952,0,16.206,7.254,16.206,16.206S103.917,116.67,94.966,116.67z M88.997,113.732h5.969c7.345,0,13.313-5.968,13.313-13.267
			c0-7.345-5.968-13.313-13.313-13.313h-5.969V113.732z"/>
		<path fill="#E5E5E4" d="M138.395,115.201c0,0.826-0.688,1.469-1.469,1.469h-19.235c-0.826,0-1.469-0.643-1.469-1.469V85.728
			c0-0.826,0.642-1.469,1.469-1.469h19.235c0.78,0,1.469,0.643,1.469,1.469c0,0.78-0.688,1.423-1.469,1.423H119.16v11.155h12.808
			c0.781,0,1.469,0.643,1.469,1.423c0,0.826-0.688,1.469-1.469,1.469H119.16v12.533h17.767
			C137.707,113.732,138.395,114.42,138.395,115.201z"/>
		<path fill="#E5E5E4" d="M166.263,96.058c0,6.473-5.233,11.706-11.661,11.706h-6.289v6.197c0,1.515-1.193,2.709-2.663,2.709
			s-2.663-1.194-2.663-2.709V87.06c0-1.469,1.193-2.663,2.663-2.663h8.952C161.03,84.396,166.263,89.63,166.263,96.058z
			 M160.938,96.058c0-3.489-2.846-6.29-6.335-6.29h-6.289v12.625h6.289C158.092,102.392,160.938,99.592,160.938,96.058z"/>
		<path fill="#E5E5E4" d="M186.051,116.67c-8.906,0-16.114-7.208-16.114-16.114c0-8.861,7.208-16.114,16.114-16.114
			c8.861,0,16.114,7.253,16.114,16.114C202.165,109.463,194.912,116.67,186.051,116.67z M186.051,89.768
			c-5.968,0-10.788,4.867-10.788,10.788c0,5.968,4.82,10.788,10.788,10.788c5.922,0,10.788-4.82,10.788-10.788
			C196.84,94.634,191.973,89.768,186.051,89.768z"/>
		<path fill="#E5E5E4" d="M216.353,116.67c-4.04,0-6.473-1.699-7.85-3.076c-1.698-1.79-2.663-4.178-2.663-6.611
			c0-1.469,1.194-2.663,2.663-2.663c1.469,0,2.663,1.193,2.663,2.663c0,1.607,1.102,4.361,5.188,4.361s5.188-2.754,5.188-4.361
			c0-2.433-1.331-3.168-5.83-4.453c-2.02-0.597-4.086-1.194-5.785-2.387c-2.295-1.561-3.443-3.765-3.443-6.611
			c0-2.295,0.918-4.545,2.479-6.198c1.285-1.331,3.627-2.892,7.391-2.892c3.811,0,6.106,1.561,7.391,2.892
			c1.607,1.653,2.525,3.903,2.525,6.198c0,1.469-1.193,2.663-2.708,2.663c-1.469,0-2.663-1.194-2.663-2.663
			c0-1.378-0.964-3.765-4.545-3.765s-4.545,2.387-4.545,3.765c0,1.79,0.689,2.479,5.371,3.856c2.112,0.597,4.315,1.239,6.106,2.525
			c2.388,1.653,3.581,4.04,3.581,7.07c0,2.433-0.964,4.82-2.663,6.611C222.872,114.971,220.392,116.67,216.353,116.67z"/>
		<path fill="#E5E5E4" d="M253.998,87.105c0,1.469-1.194,2.663-2.663,2.663h-7.299v24.24c0,1.469-1.194,2.663-2.708,2.663
			c-1.469,0-2.663-1.194-2.663-2.663v-24.24h-7.299c-1.469,0-2.663-1.193-2.663-2.663c0-1.469,1.194-2.663,2.663-2.663h19.97
			C252.804,84.443,253.998,85.636,253.998,87.105z"/>
	</g>
</g>
</svg>
