<?xml version="1.0" encoding="utf-8"?>
<!-- Generator: Adobe Illustrator 17.0.0, SVG Export Plug-In . SVG Version: 6.00 Build 0)  -->
<!DOCTYPE svg PUBLIC "-//W3C//DTD SVG 1.1//EN" "http://www.w3.org/Graphics/SVG/1.1/DTD/svg11.dtd">
<svg version="1.1" id="Layer_1" xmlns="http://www.w3.org/2000/svg" xmlns:xlink="http://www.w3.org/1999/xlink" x="0px" y="0px"
	 width="283.46px" height="283.46px" viewBox="0 0 283.46 283.46" enable-background="new 0 0 283.46 283.46" xml:space="preserve">
<polygon fill="#FFFFFF" points="94.162,121.886 116.14,134.575 116.14,64.085 94.162,50.276 "/>
<polygon fill="#FFFFFF" points="126.292,229.411 171.15,202.722 171.15,202.812 191.915,190.767 191.915,190.618 203.938,173.039 
	194.765,159.674 126.291,198.593 "/>
<polygon fill="#FFFFFF" points="157.132,65.882 126.291,65.882 126.291,86.087 157.132,85.136 "/>
<path fill="#FFFFFF" d="M225.892,88.982c-19.035-35.545-56.538-59.781-99.6-59.781c-62.255,0-112.903,50.648-112.903,112.903
	c0,62.255,50.648,112.903,112.903,112.903c62.255,0,112.903-50.648,112.903-112.903c0-2.034-0.057-4.055-0.164-6.063l12.679,1.071
	l17.724-22.44L251.71,87.114L225.892,88.982z M228.019,142.104c0,50.439-36.902,92.414-85.125,100.365v-14.275l-16.603,9.192v6.446
	l0,0c-3.426,0-6.812-0.173-10.151-0.505V187.42v-6.355v-32.207l-51.764-29.657L50.48,138.482l13.896,19.139l32.954,18.971v63.032
	c-42.027-12.504-72.766-51.487-72.766-97.521c0-56.092,45.635-101.727,101.727-101.727c37.01,0,69.463,19.869,87.263,49.498
	l-87.263,6.315v91.946l16.603-9.405V127.92l84.878,7.17C227.931,137.408,228.019,139.746,228.019,142.104z"/>
</svg>
